<svg xmlns="http://www.w3.org/2000/svg" width="1587" height="681" viewBox="0 0 1587 681" version="1.1"><path d="M 724.966 159.854 C 719.776 160.972, 718.915 161.765, 719.579 164.811 C 722.791 179.527, 732.453 195.740, 744.701 206.963 C 756.174 217.476, 765.105 221.275, 784.982 224.095 C 800.902 226.353, 811.599 230.964, 820.612 239.452 C 821.224 240.029, 826.036 244.100, 831.306 248.500 C 836.576 252.900, 840.913 256.900, 840.944 257.390 C 841.045 258.992, 830.433 257.233, 820.367 253.979 C 811.348 251.063, 809.707 250.834, 801.273 251.313 C 794.384 251.704, 790.857 252.428, 787.355 254.168 C 782.301 256.681, 776.136 263.630, 774.094 269.116 C 772.067 274.563, 771.490 275.342, 768.929 276.093 C 767.593 276.485, 760.879 278.455, 754.010 280.471 C 741.938 284.013, 741.302 284.095, 735.010 282.924 C 728.467 281.707, 717.451 276.255, 708 269.559 C 693.896 259.566, 682.332 255.520, 669.883 256.223 C 663.880 256.563, 661.232 257.247, 657.383 259.455 C 651.549 262.803, 645.390 268.443, 643.374 272.285 C 642.033 274.841, 642.093 275.332, 644.111 278.285 C 648.446 284.627, 655.601 291.219, 661.311 294.129 C 673.183 300.179, 683.221 300.025, 704.046 293.473 C 715.011 290.023, 726.298 287.859, 724.780 289.497 C 724.383 289.924, 716.058 293.002, 706.280 296.337 L 688.500 302.400 672.500 302 C 649.021 301.412, 641.760 301.618, 635.824 303.041 C 624.353 305.789, 608.936 316.316, 601.091 326.756 C 596.741 332.545, 591.293 343.194, 590.420 347.613 L 589.805 350.725 596.652 352.613 C 601.886 354.055, 606.681 354.483, 617 354.429 C 628.625 354.367, 631.702 353.990, 639.156 351.710 C 643.916 350.255, 650.425 347.826, 653.620 346.313 C 660.058 343.265, 669.256 334.752, 675.878 325.712 C 683.314 315.563, 690.649 309.032, 698.885 305.227 C 707.280 301.348, 734 291.729, 734 292.586 C 734 294.603, 730.414 298.880, 720.657 308.500 C 710.414 318.599, 709.266 320.115, 706.639 327 C 704.267 333.217, 703.864 335.526, 704.283 340.500 C 704.867 347.440, 707.648 354.275, 711.546 358.354 L 714.274 361.208 711.521 372.854 C 710.007 379.259, 708.381 386.085, 707.907 388.022 C 705.761 396.798, 697.780 403.573, 677.280 414.021 C 670.746 417.351, 662.616 422.355, 659.213 425.142 C 651.568 431.403, 645.359 440.421, 644.431 446.613 C 643.449 453.157, 644.518 464.802, 646.555 469.750 C 648.576 474.663, 650.191 474.987, 660.509 472.553 C 669.795 470.363, 675.557 467.495, 681.113 462.298 C 688.019 455.838, 691.358 448.709, 695.902 430.723 C 698.018 422.350, 700.268 414.200, 700.902 412.611 C 703.411 406.331, 702.978 411.623, 699.566 428.943 C 695.581 449.170, 694.567 451.671, 683.536 468.500 C 671.191 487.331, 668.622 494.310, 668.630 509 C 668.636 520.541, 670.194 527.820, 674.876 538.174 C 677.741 544.509, 686.304 557, 687.782 557 C 688.837 557, 698.005 547.377, 701.120 543 C 710.591 529.690, 716 513.171, 716 497.551 C 716 488.411, 714.018 480.657, 707.423 464 C 704.076 455.547, 703.657 453.508, 703.626 445.500 C 703.595 437.844, 708.325 405.822, 709.753 404.015 C 709.964 403.748, 710.978 404.645, 712.007 406.009 C 713.924 408.551, 714.270 409.698, 718.019 425.953 C 723.106 448.014, 737.922 459.609, 756.074 455.738 C 759.603 454.985, 759.800 455.124, 771.634 466.738 C 787.543 482.351, 787.520 482.285, 786.710 508.897 C 786.027 531.391, 787.035 539.165, 791.885 548.771 C 797.054 559.011, 807.826 566.245, 820.065 567.694 L 824.652 568.237 826.895 563.022 C 828.129 560.154, 829.868 554.444, 830.761 550.332 C 832.693 541.427, 831.804 535.452, 827.027 525.244 C 824.570 519.994, 821.556 516.386, 810.662 505.654 C 803.318 498.420, 796.773 491.488, 796.119 490.250 C 794.777 487.710, 795.207 487.350, 797.201 489.344 C 797.941 490.084, 801.910 493.506, 806.022 496.950 C 823.767 511.813, 827.616 516.208, 834.527 529.500 C 845.291 550.204, 847.458 553.608, 853.943 560 C 857.570 563.575, 862.779 567.704, 865.519 569.175 C 878.909 576.364, 896.333 579.484, 909.364 577.026 C 915.975 575.778, 916 575.761, 916 572.424 C 916 567.939, 912.798 559.642, 907.226 549.690 C 903.970 543.874, 899.985 538.857, 893.481 532.384 C 881.230 520.191, 874.421 516.769, 855.935 513.511 C 837.094 510.192, 833.491 509.288, 828.175 506.550 C 823.764 504.277, 808.943 492.348, 799 483.068 L 794.500 478.868 801 479.390 C 804.575 479.677, 810.875 481.072, 815 482.490 C 829.465 487.462, 843.684 486.759, 851.661 480.678 C 856.334 477.115, 861.097 470.386, 862.933 464.750 C 863.605 462.687, 864.762 461, 865.503 461 C 866.244 461, 872.823 459.166, 880.123 456.925 C 891.643 453.388, 894.151 452.937, 899.109 453.513 C 905.585 454.264, 913.406 457.923, 926 466.092 C 939.670 474.959, 941.094 475.714, 949.500 478.536 C 964.961 483.729, 977.706 480.691, 988.657 469.202 C 991.596 466.119, 994 463.206, 994 462.728 C 994 460.965, 988.092 453.357, 983.092 448.682 C 974.043 440.219, 962.412 436.803, 949.500 438.813 C 946.200 439.326, 938.100 441.335, 931.500 443.276 C 919.911 446.685, 908.878 448.926, 910.086 447.625 C 910.409 447.278, 918.458 444.314, 927.973 441.038 C 948.002 434.142, 954.102 433.327, 974.443 434.828 C 999.534 436.679, 1012.672 432.409, 1028.250 417.340 C 1035.520 410.308, 1039.479 404.655, 1043.138 396.080 C 1047.152 386.673, 1047.113 386.498, 1040.500 384.491 C 1030.224 381.371, 1013.112 381.137, 1001.500 383.957 C 990.073 386.731, 981.529 390.349, 975.602 394.921 C 970.024 399.225, 969.656 399.616, 960 411.500 C 951.748 421.656, 946.784 426.349, 940.500 429.933 C 935.323 432.886, 906.032 444, 903.425 444 C 900.516 444, 904.712 438.408, 914.044 429.850 C 924.524 420.239, 928.050 415.366, 931.054 406.337 C 932.659 401.516, 933.034 398.714, 932.528 395.341 C 931.596 389.120, 928.444 382.089, 924.975 378.491 L 922.074 375.481 925.540 360.991 C 929.558 344.193, 929.939 343.324, 935.914 337.349 C 940.779 332.484, 947.015 328.582, 959.500 322.591 C 974.518 315.383, 984.849 306.470, 990.103 296.188 C 993.380 289.774, 993.427 274.991, 990.193 267.750 C 988.197 263.281, 987.845 263, 984.246 263 C 974.324 263, 961.754 268.162, 954.828 275.082 C 948.563 281.340, 944.321 290.115, 941.478 302.697 C 940.183 308.430, 938.139 316.131, 936.938 319.810 C 934.456 327.407, 932.328 330.555, 933.429 325 C 933.811 323.075, 935.224 315.425, 936.569 308 C 940.205 287.926, 940.936 286.112, 952.486 268.500 C 964.053 250.863, 966.753 244.282, 967.684 231.462 C 968.823 215.769, 962.197 195.607, 952.085 184 L 948.165 179.500 943.513 184 C 937.808 189.518, 931.212 199.292, 927.217 208.148 C 922.360 218.914, 920.596 227.216, 920.556 239.500 C 920.519 250.500, 920.520 250.500, 926.337 266 C 933.236 284.379, 934.150 291.281, 931.572 305.500 C 930.674 310.450, 929.257 318.324, 928.422 322.998 C 927.586 327.673, 926.513 331.887, 926.037 332.363 C 924.539 333.861, 922.055 327.470, 919.144 314.627 C 916.210 301.683, 913.488 295.760, 907.355 288.972 C 901.140 282.092, 888.601 278.327, 880.648 280.951 L 877.027 282.146 868.263 273.656 C 863.443 268.986, 858.323 264.243, 856.884 263.116 C 855.410 261.960, 853.228 258.325, 851.884 254.783 C 849.603 248.772, 849.512 247.571, 849.766 227 C 850.063 203.088, 849.366 197.694, 844.762 188.236 C 839.660 177.758, 829.621 170.796, 817.574 169.380 L 812.171 168.745 810.177 172.652 C 806.462 179.935, 804.776 187.732, 805.149 195.906 C 805.443 202.354, 806.100 204.814, 809.192 211.052 C 812.261 217.244, 815.016 220.602, 825.526 230.964 C 843.007 248.198, 847.424 254.597, 833.394 242.360 C 830.152 239.533, 823.978 234.164, 819.673 230.428 C 810.541 222.503, 808.439 219.628, 799.994 203.500 C 787.735 180.089, 782.151 173.626, 768.045 166.523 C 764.443 164.709, 759.022 162.473, 755.998 161.554 C 749.913 159.704, 730.579 158.645, 724.966 159.854 M 728 163 C 728 163.550, 726.855 164, 725.455 164 C 723.059 164, 722.949 164.221, 723.590 167.750 C 724.264 171.463, 727.233 178.244, 729.327 180.851 C 729.924 181.594, 730.510 182.871, 730.630 183.688 C 731.058 186.598, 736.556 193.624, 744.966 202.005 C 755.955 212.957, 762.717 216.484, 777.581 219.014 C 783.542 220.029, 788.795 220.627, 789.254 220.343 C 789.712 220.060, 790.630 220.260, 791.294 220.788 C 791.957 221.317, 793.850 221.994, 795.500 222.293 C 801.684 223.414, 807.470 225.144, 808.911 226.302 C 809.730 226.961, 808.330 224.575, 805.799 221 C 801.422 214.818, 792 197.194, 792 195.188 C 792 194.669, 791.292 193.657, 790.427 192.939 C 789.562 192.221, 788 189.959, 786.956 187.913 C 779.623 173.540, 756.702 162, 735.486 162 C 731.162 162, 728 162.422, 728 163 M 728 164.879 C 728 166.060, 732.184 167.667, 739.768 169.399 C 747.433 171.150, 753.493 174.589, 758.313 179.924 C 762.620 184.692, 770.352 189.188, 778 191.372 C 781.828 192.465, 784.944 194.295, 788.250 197.393 C 790.862 199.840, 793 201.464, 793 200.999 C 793 198.771, 783.058 191.830, 777.283 190.027 C 768.308 187.224, 765.640 185.618, 758.830 178.912 C 751.634 171.826, 749.523 170.629, 740.576 168.554 C 736.860 167.692, 732.860 166.315, 731.687 165.493 C 729.273 163.802, 728 163.590, 728 164.879 M 811.876 174.728 C 811.270 176.253, 810.098 178.784, 809.270 180.352 C 807.178 184.320, 806.404 198.653, 808.016 203.588 C 810.551 211.352, 818.453 221.671, 827.702 229.297 C 830.013 231.203, 834.963 236.313, 838.702 240.653 L 845.500 248.543 845.441 225.021 L 845.382 201.500 842.181 193.500 C 840.420 189.100, 838.196 184.558, 837.240 183.406 C 833.085 178.404, 826.014 174.839, 815.739 172.567 C 813.388 172.047, 812.813 172.369, 811.876 174.728 M 941.967 189.115 C 939.510 191.928, 936.825 195.402, 936 196.835 C 935.175 198.267, 933.938 200.047, 933.252 200.789 C 932.565 201.532, 931.708 203.346, 931.348 204.820 C 930.987 206.294, 930.402 207.725, 930.049 208 C 928.578 209.142, 924.902 219.784, 923.376 227.313 C 922.272 232.763, 921.934 237.688, 922.336 242.449 C 922.881 248.896, 926.829 261.942, 930.404 269.107 C 931.186 270.675, 932.639 275.117, 933.634 278.979 C 934.629 282.840, 935.779 286, 936.190 286 C 936.601 286, 936.688 286.788, 936.382 287.750 C 936.077 288.712, 938.138 285.225, 940.963 280 C 943.788 274.775, 947.327 268.925, 948.829 267 C 953.405 261.133, 954.722 258.641, 957.497 250.601 C 960.424 242.120, 960.542 235.667, 957.966 224.821 C 956.850 220.124, 956.839 217.771, 957.903 211.223 C 959.172 203.408, 959.153 203.236, 956.481 197.903 C 953.801 192.556, 947.996 184.091, 946.967 184.031 C 946.675 184.014, 944.425 186.302, 941.967 189.115 M 959.683 211 C 958.298 219.349, 958.292 223.169, 959.658 227.132 C 960.458 229.455, 961.142 234.497, 961.179 238.336 C 961.232 243.996, 961.457 244.955, 962.372 243.408 C 964.227 240.271, 963.849 215.254, 961.882 211 L 960.264 207.500 959.683 211 M 797.500 253.497 C 796.950 253.684, 794.860 254.110, 792.855 254.444 C 789.178 255.057, 782.807 259.403, 780.264 263.033 C 777.805 266.544, 781.169 265.374, 787.364 260.563 C 792.850 256.303, 797.255 254.711, 806.500 253.645 C 808.150 253.455, 807.025 253.268, 804 253.229 C 800.975 253.190, 798.050 253.311, 797.500 253.497 M 796.253 256.460 C 793.918 257.190, 790.350 259.241, 788.326 261.019 C 786.302 262.796, 783.227 264.843, 781.493 265.567 C 779.759 266.292, 777.879 267.473, 777.315 268.192 C 775.778 270.150, 774 278.289, 774 283.362 C 774 287.350, 774.557 288.448, 779.100 293.419 C 783.210 297.916, 784.812 299.003, 787.350 299.015 C 789.676 299.027, 790.117 299.273, 789.034 299.958 C 787.860 300.700, 788.122 301.096, 790.349 301.943 C 794.732 303.609, 804.022 303.178, 808.500 301.100 C 813.704 298.685, 820.930 293.347, 821.696 291.351 C 822.027 290.488, 823.243 288.752, 824.399 287.493 C 825.554 286.234, 828.075 282.580, 830 279.373 C 831.925 276.166, 835.395 271.508, 837.711 269.021 C 841.745 264.690, 841.829 264.473, 839.711 263.850 C 837.866 263.307, 838.025 263.183, 840.668 263.100 C 844.646 262.975, 847.146 262.046, 846.466 260.946 C 846.179 260.481, 843.819 260.336, 841.222 260.624 C 836.389 261.160, 826.694 259.372, 819.500 256.619 C 814.565 254.730, 802.065 254.645, 796.253 256.460 M 662.665 259.800 C 657.596 261.600, 651.221 266.539, 647.781 271.331 C 646.017 273.789, 645.919 274.481, 647.043 276.581 C 647.755 277.911, 648.963 279, 649.728 279 C 650.493 279, 650.872 279.398, 650.572 279.884 C 649.664 281.353, 658.202 288.477, 664.364 291.392 C 669.200 293.680, 671.504 294.130, 678.476 294.150 C 683.059 294.163, 687.761 293.663, 688.925 293.040 C 690.089 292.417, 691.424 292.144, 691.893 292.434 C 692.361 292.723, 696.519 291.684, 701.132 290.124 C 705.746 288.565, 712.666 286.754, 716.511 286.101 C 727.447 284.243, 727.708 284.108, 724.351 282.070 C 722.783 281.117, 717.937 278.462, 713.583 276.169 C 709.229 273.876, 706.079 271.996, 706.583 271.990 C 708.699 271.969, 694.342 263.767, 691.332 263.279 C 689.432 262.971, 688.308 262.311, 688.674 261.718 C 689.048 261.114, 688.816 260.996, 688.111 261.432 C 687.452 261.839, 686.370 261.723, 685.706 261.173 C 684.734 260.368, 670.809 257.880, 668.178 258.042 C 667.805 258.064, 665.324 258.856, 662.665 259.800 M 844.500 267.646 C 840.988 269.941, 832 279.753, 832 281.292 C 832 282.950, 823.536 294.242, 820.068 297.210 C 803.728 311.196, 786.742 309.252, 773.702 291.906 C 771.749 289.307, 771 287.128, 771 284.039 C 771 280.444, 770.723 279.847, 769.250 280.273 C 768.288 280.551, 762.167 282.265, 755.648 284.080 L 743.796 287.382 744.170 293.941 C 744.487 299.483, 745.425 302.283, 750.218 312 C 756.631 324.999, 757.941 329.603, 757.976 339.282 C 758.030 354.469, 749.071 364.018, 731.867 367.110 C 725.576 368.241, 725.069 368.185, 722.040 366.028 C 720.283 364.778, 718.496 364.147, 718.068 364.627 C 717.097 365.717, 711.969 386.754, 711.987 389.573 C 712.010 393.273, 719.564 396.080, 732.319 397.128 C 748.098 398.425, 754.540 399.739, 760.933 402.966 C 768.087 406.577, 771.694 410.195, 774.757 416.827 C 776.802 421.254, 777.146 423.281, 776.799 428.827 C 776.570 432.497, 775.320 438.356, 774.021 441.847 C 772.107 446.994, 771.032 448.494, 768.331 449.782 C 766.499 450.656, 765 451.639, 765 451.967 C 765 452.524, 771.004 458.432, 780.627 467.344 L 784.754 471.166 788.722 469.142 C 793.562 466.673, 797.433 462.361, 804.653 451.398 C 810.775 442.102, 816.122 436.910, 824.146 432.467 C 828.702 429.944, 830.543 429.512, 836.500 429.564 C 846.217 429.651, 851.491 432.509, 859.719 442.148 C 863.391 446.450, 864 447.807, 864 451.689 C 864 455.349, 864.294 456.101, 865.537 455.624 C 866.382 455.300, 869.645 454.319, 872.787 453.444 C 875.929 452.569, 881.362 450.933, 884.859 449.809 L 891.218 447.764 890.827 441.632 C 890.507 436.627, 889.255 433.019, 884.014 422 C 877.737 408.804, 877.583 408.284, 877.187 398.924 C 876.836 390.648, 877.068 388.786, 878.897 385.202 C 883.496 376.188, 888.314 372.494, 899.500 369.405 C 906.377 367.505, 909.704 367.654, 913.553 370.033 C 915.362 371.151, 917.053 371.713, 917.310 371.283 C 918.292 369.643, 923 349.580, 923 347.036 C 923 341.918, 911.592 338.013, 896.566 337.988 C 887.851 337.973, 881.106 336.240, 873.043 331.942 C 865.593 327.971, 861.925 323.774, 859.679 316.652 C 857.394 309.403, 857.561 305.494, 860.557 296.008 C 862.834 288.802, 863.493 287.733, 866.557 286.271 C 868.451 285.368, 870 284.316, 870 283.933 C 870 282.729, 850.986 264.999, 849.712 265.016 C 849.045 265.025, 846.700 266.208, 844.500 267.646 M 977 267.127 C 971.005 268.226, 964 270.928, 964 272.142 C 964 272.679, 963.634 272.892, 963.188 272.616 C 962.028 271.899, 957.827 274.915, 954.292 279 C 950.843 282.987, 945.807 292.470, 946.174 294.287 C 946.309 294.954, 945.942 296.400, 945.359 297.500 C 944.775 298.600, 943.724 302.425, 943.023 306 C 941.637 313.069, 939.141 321.287, 936.537 327.358 C 935.627 329.480, 935.045 331.378, 935.243 331.576 C 935.730 332.064, 953.412 321.816, 953.833 320.802 C 954.017 320.361, 954.819 320, 955.617 320 C 958.263 320, 967.438 314.802, 971.728 310.873 C 974.053 308.743, 976.329 307, 976.785 307 C 977.241 307, 979.676 304.188, 982.196 300.750 C 989.382 290.948, 990.580 283.854, 986.927 272.728 C 984.671 265.856, 984.490 265.753, 977 267.127 M 871.250 287.179 C 867.813 288.772, 865 290.695, 865 291.454 C 865 292.213, 866.237 293.818, 867.750 295.022 L 870.500 297.211 867.722 295.564 C 864.195 293.473, 863.502 293.951, 862.123 299.426 C 859.718 308.975, 861.769 317.960, 867.809 324.344 C 873.867 330.748, 886.341 335, 899.070 335 L 906.041 335 904.127 331.250 C 903.074 329.188, 901.265 326.643, 900.106 325.595 C 898.948 324.547, 898.016 323.197, 898.036 322.595 C 898.085 321.100, 902.689 326.699, 904.948 331.001 C 906.599 334.145, 907.536 334.693, 914.143 336.374 C 918.189 337.403, 922.073 338.704, 922.774 339.265 C 925.401 341.368, 925.041 339.039, 922.114 334.998 C 918.912 330.578, 915.502 320.648, 914.498 312.820 C 914.169 310.247, 912.917 306.893, 911.718 305.368 C 910.518 303.843, 910.086 302.935, 910.757 303.350 C 914.037 305.377, 907.707 294.918, 902.859 290.301 C 897.863 285.542, 893.044 283.898, 884.695 284.105 C 879.119 284.243, 876.094 284.934, 871.250 287.179 M 371.196 289.832 C 365.406 292.283, 364.943 292.704, 365.517 295 C 367.495 302.906, 367.376 303.409, 358.002 326.672 C 325.095 408.336, 325.156 408.205, 318.380 412.203 C 316.521 413.300, 315 414.603, 315 415.099 C 315 415.594, 319.725 416, 325.500 416 C 331.275 416, 336 415.602, 336 415.115 C 336 414.628, 334.875 413.493, 333.500 412.592 C 329.334 409.862, 330.019 403.564, 336.083 388.841 C 338.879 382.054, 341.901 374.587, 342.799 372.250 L 344.431 368 370.055 368 L 395.679 368 396.953 370.750 C 402.195 382.061, 411.315 405.179, 411.740 408.232 C 412.136 411.084, 411.874 412.111, 410.629 412.589 C 409.733 412.933, 409 413.841, 409 414.607 C 409 415.731, 411.700 416, 423 416 C 436.974 416, 439.225 415.390, 434.960 412.758 C 431.360 410.538, 426.230 401.842, 420.650 388.500 C 407.739 357.635, 403.651 347.810, 391.425 318.266 C 384.316 301.087, 378.275 287.062, 378 287.098 C 377.725 287.135, 374.663 288.365, 371.196 289.832 M 454 288.923 C 454 289.431, 455.311 291.158, 456.914 292.761 C 458.874 294.720, 460.040 297.121, 460.474 300.087 C 460.829 302.514, 460.980 327.695, 460.809 356.045 C 460.525 403.396, 460.356 407.811, 458.727 410.295 C 457.752 411.783, 456.289 413, 455.477 413 C 454.665 413, 454 413.675, 454 414.500 C 454 415.811, 459.658 416, 498.920 416 L 543.841 416 544.393 409.750 C 545.658 395.424, 545.675 392, 544.484 392 C 543.835 392, 542.508 393.764, 541.536 395.919 C 539.212 401.073, 532.840 407.415, 527.282 410.106 C 522.142 412.594, 506.974 413.962, 490.500 413.423 C 481.167 413.118, 480.350 412.922, 478.250 410.492 C 476.027 407.919, 476 407.541, 476 378.444 L 476 349 490.250 349.020 C 514.221 349.054, 522.623 351.211, 526.500 358.324 C 527.600 360.343, 528.837 361.996, 529.250 361.997 C 529.663 361.999, 530 355.700, 530 348 C 530 340.300, 529.663 334.003, 529.250 334.008 C 528.837 334.012, 527.510 335.750, 526.299 337.870 C 522.435 344.639, 519.439 345.433, 496.250 345.831 L 476 346.178 476 318.498 L 476 290.819 495.750 291.213 C 513.258 291.562, 516.141 291.859, 521.143 293.835 C 527.334 296.280, 534.618 303.171, 536.908 308.750 C 537.642 310.538, 538.905 312, 539.715 312 C 540.884 312, 541.072 311.020, 540.628 307.250 C 540.320 304.637, 539.782 299.238, 539.432 295.250 L 538.797 288 496.399 288 C 471.155 288, 454 288.373, 454 288.923 M 1081.686 288.647 C 1081.330 289.003, 1083.012 291.141, 1085.424 293.397 C 1088.351 296.136, 1090.182 298.897, 1090.931 301.705 C 1091.709 304.622, 1091.968 321.723, 1091.776 357.565 L 1091.500 409.220 1088.250 411.933 C 1086.463 413.425, 1085 414.950, 1085 415.323 C 1085 415.695, 1090.213 416, 1096.583 416 C 1103.382 416, 1108.029 415.612, 1107.833 415.060 C 1107.650 414.543, 1105.925 413.065, 1104 411.775 C 1102.075 410.485, 1099.600 407.646, 1098.500 405.465 C 1096.597 401.692, 1096.485 399.182, 1096.197 353.500 C 1096.021 325.651, 1096.265 305.920, 1096.778 306.500 C 1097.264 307.050, 1103.640 317.400, 1110.946 329.500 C 1118.252 341.600, 1125.910 354.200, 1127.963 357.500 C 1130.016 360.800, 1134.165 367.550, 1137.184 372.500 C 1140.202 377.450, 1143.357 381.633, 1144.196 381.796 C 1145.248 382.001, 1150.454 374.102, 1161 356.296 C 1169.404 342.108, 1178.307 327.125, 1180.784 323 C 1183.261 318.875, 1186.178 313.925, 1187.265 312 C 1192.264 303.150, 1192 300.762, 1192 354.810 C 1192 408.461, 1191.835 410.412, 1187.085 412.955 C 1182.577 415.367, 1185.261 416, 1200 416 C 1208.250 416, 1215 415.635, 1215 415.188 C 1215 414.741, 1213.713 413.424, 1212.140 412.261 C 1210.481 411.035, 1208.976 408.750, 1208.558 406.823 C 1207.441 401.679, 1206.895 327.718, 1207.871 313.711 C 1208.843 299.742, 1210.997 294.054, 1216.184 291.758 C 1221.092 289.586, 1218.678 288.510, 1208.236 288.216 L 1198.135 287.932 1189.378 302.716 C 1184.562 310.847, 1176.057 325.150, 1170.479 334.500 C 1164.900 343.850, 1158.440 354.762, 1156.124 358.750 C 1153.807 362.738, 1151.594 365.998, 1151.206 365.995 C 1150.818 365.992, 1148.560 362.730, 1146.189 358.745 C 1143.818 354.760, 1135.824 341.600, 1128.425 329.500 C 1121.027 317.400, 1112.392 303.118, 1109.237 297.763 L 1103.500 288.025 1092.917 288.013 C 1087.096 288.006, 1082.042 288.291, 1081.686 288.647 M 738.418 290.094 C 737.822 290.867, 736.777 292.909, 736.095 294.631 C 735.414 296.354, 732.645 300.179, 729.943 303.131 C 727.241 306.084, 725.024 308.864, 725.015 309.309 C 725.007 309.754, 724.588 309.864, 724.085 309.553 C 722.875 308.805, 713.819 317.899, 714.568 319.110 C 714.887 319.627, 714.620 319.926, 713.973 319.775 C 713.326 319.624, 711.380 322.200, 709.648 325.500 C 702.598 338.936, 706.942 352.892, 721.005 361.982 C 725.160 364.668, 725.936 364.831, 731.005 364.087 C 737.908 363.072, 741.875 361.488, 742.665 359.431 C 743.132 358.214, 743.464 358.133, 744.057 359.092 C 745.263 361.044, 752.647 352.288, 754.075 347.213 C 755.487 342.193, 754.783 329.243, 752.813 324.016 C 752.091 322.099, 749.813 317.425, 747.750 313.627 C 745.688 309.830, 744 306.200, 744 305.562 C 744 304.923, 743.548 303.948, 742.996 303.396 C 742.444 302.844, 741.432 299.309, 740.746 295.541 C 739.789 290.279, 739.249 289.015, 738.418 290.094 M 633.488 305.998 C 630.732 306.943, 626.586 308.681, 624.276 309.859 C 619.807 312.139, 609.033 320.465, 607.706 322.665 C 607.269 323.388, 605.222 325.933, 603.157 328.318 C 599.071 333.039, 594.208 342.194, 593.773 345.985 C 593.526 348.141, 594.065 348.485, 599.500 349.639 C 606.008 351.021, 623.996 351.469, 624.006 350.250 C 624.009 349.837, 626.372 349.448, 629.256 349.385 C 635.330 349.252, 645.182 346.062, 652.860 341.743 C 658.884 338.354, 664.255 333.249, 671.261 324.254 C 675.801 318.425, 675.917 318.122, 673.761 317.707 C 671.625 317.296, 671.638 317.265, 674.003 317.136 C 675.519 317.054, 678.645 314.981, 681.928 311.883 L 687.350 306.765 682.925 307.379 L 678.500 307.992 683.250 306.466 C 685.862 305.626, 687.999 304.841, 687.999 304.720 C 687.998 304.599, 676.861 304.450, 663.249 304.390 C 642.265 304.297, 637.738 304.541, 633.488 305.998 M 362.564 323.265 C 358.787 332.744, 353.515 345.780, 350.848 352.234 C 348.182 358.687, 346 364.200, 346 364.484 C 346 364.768, 356.800 365, 370 365 C 384.350 365, 394 364.621, 394 364.058 C 394 362.827, 371.042 307.725, 370.129 306.765 C 369.745 306.361, 366.340 313.786, 362.564 323.265 M 662 311.672 C 660.075 312.501, 656.025 315.319, 653 317.933 C 649.975 320.547, 646.150 323.414, 644.500 324.303 C 642.850 325.192, 642 325.938, 642.610 325.960 C 644.021 326.011, 650.225 321.813, 655.457 317.266 C 657.681 315.335, 661.525 312.934, 664 311.933 C 666.475 310.931, 667.825 310.123, 667 310.137 C 666.175 310.152, 663.925 310.842, 662 311.672 M 902.500 372.018 C 896.285 372.973, 892 374.612, 892 376.034 C 892 376.630, 891.517 376.819, 890.926 376.454 C 888.281 374.819, 880.532 385.693, 879.492 392.500 C 878.450 399.321, 880.513 409.110, 885.053 418.880 C 887.383 423.896, 889.567 428, 889.904 428 C 890.595 428, 892.654 424.914, 894.805 420.655 C 895.595 419.090, 896.581 415.490, 896.996 412.655 C 897.643 408.233, 897.768 408.016, 897.875 411.124 C 898.023 415.428, 895.862 421.981, 892.942 426.082 C 890.906 428.941, 890.890 429.226, 892.421 435.330 C 893.289 438.794, 894 442.837, 894 444.314 C 894 448.283, 895.649 447.581, 897.812 442.693 C 898.860 440.324, 901.806 436.034, 904.359 433.159 C 906.911 430.285, 909 427.512, 909 426.998 C 909 426.484, 909.563 426.262, 910.250 426.506 C 911.584 426.979, 918 421.665, 918 420.087 C 918 419.569, 919.176 418.220, 920.613 417.089 C 922.258 415.796, 923.004 414.452, 922.625 413.465 C 922.294 412.602, 922.442 412.155, 922.954 412.472 C 924.431 413.384, 928.156 403.952, 928.275 399 C 928.404 393.620, 926.294 385.700, 924.953 386.529 C 924.429 386.853, 924 386.257, 924 385.205 C 924 384.153, 922.987 382.213, 921.750 380.894 C 918.835 377.787, 909.487 370.963, 908.366 371.125 C 907.890 371.193, 905.250 371.595, 902.500 372.018 M 1011 385.651 C 1000.459 386.649, 987.428 390.550, 980.725 394.712 C 974.827 398.375, 972.401 400.750, 963.060 412.008 C 958.264 417.788, 952.689 424.074, 950.670 425.978 C 948.652 427.882, 947 429.904, 947 430.470 C 947 431.143, 955.349 431.570, 971.056 431.700 C 992.545 431.879, 995.794 431.690, 1001.512 429.924 C 1015.280 425.671, 1029.873 412.699, 1037.719 397.738 C 1041.404 390.711, 1041.829 388.007, 1039.250 387.985 C 1038.287 387.977, 1035.700 387.321, 1033.500 386.529 C 1029.807 385.198, 1019.876 384.811, 1011 385.651 M 890.160 391.091 C 890.072 393.616, 889.369 397.778, 888.598 400.339 C 887.828 402.901, 887.572 404.765, 888.031 404.481 C 889.373 403.651, 891.223 393.810, 890.752 390 C 890.367 386.877, 890.303 386.994, 890.160 391.091 M 709 396.559 C 709 396.866, 710.311 398.778, 711.913 400.809 C 714.922 404.621, 719.997 419.044, 720.004 423.802 C 720.006 425.286, 720.921 427.999, 722.038 429.830 C 723.154 431.662, 723.569 432.852, 722.960 432.475 C 722.351 432.099, 722.827 433.700, 724.017 436.034 C 727.453 442.769, 734.946 449.609, 740.787 451.344 C 746.936 453.170, 756.412 452.599, 761.568 450.091 L 765.234 448.308 761.535 446.021 C 756.837 443.118, 753.367 439.465, 751.007 434.937 C 748.201 429.554, 742.624 424.675, 736.760 422.474 C 731.033 420.325, 723.469 413.448, 717.853 405.287 C 713.750 399.322, 710.876 396, 709.820 396 C 709.369 396, 709 396.251, 709 396.559 M 715 398.468 C 715 399.791, 726.160 413.957, 729.252 416.559 C 730.976 418.009, 734.887 420.300, 737.943 421.648 C 744.252 424.432, 750.301 429.819, 753.012 435.068 C 756.213 441.266, 766.407 448.926, 768.573 446.760 C 770.312 445.021, 773.255 433.700, 773.164 429.100 C 772.914 416.570, 767.476 409.259, 755 404.681 C 749.140 402.531, 746.538 402.126, 734.344 401.465 C 724.939 400.955, 721.279 400.337, 716.750 398.497 C 715.788 398.106, 715 398.093, 715 398.468 M 690 409.524 C 685.325 412.473, 679.948 415.426, 678.051 416.086 C 671.244 418.455, 664.366 423.329, 656.434 431.404 C 646.993 441.015, 645.362 444.936, 646.291 455.791 C 647.032 464.445, 649.310 470, 652.119 470 C 655.628 470, 666.347 466.954, 669 465.202 C 670.375 464.295, 671.791 463.540, 672.147 463.526 C 674.133 463.446, 681.443 456.161, 684.020 451.693 C 687.554 445.567, 691.313 433.401, 692.576 424 C 692.687 423.175, 693.988 419.198, 695.467 415.162 C 696.947 411.126, 697.900 407.567, 697.587 407.254 C 697.274 406.940, 697.519 406.080, 698.131 405.342 C 699.721 403.426, 699.420 403.581, 690 409.524 M 831.383 432.960 C 823.808 434.742, 811.003 443.578, 812.496 445.993 C 812.767 446.432, 812.349 447.036, 811.568 447.336 C 810.787 447.635, 808.031 451.170, 805.445 455.190 C 802.858 459.211, 798.679 464.637, 796.159 467.250 L 791.575 472 794.538 472.116 C 797.634 472.237, 797.028 472.453, 790.648 473.498 C 785.065 474.412, 787.128 475.476, 794.834 475.656 C 803.238 475.852, 820.673 477.655, 816.083 477.853 C 812.014 478.028, 812.708 479.045, 817.955 480.595 C 821.837 481.741, 835.438 481.033, 839.500 479.474 C 841.041 478.882, 841.243 478.985, 840.380 479.923 C 839.764 480.592, 836.164 481.537, 832.380 482.022 L 825.500 482.904 833.737 482.484 C 842.963 482.014, 846.634 480.567, 852.250 475.187 C 856.340 471.268, 857.159 469.310, 854 471 C 852.900 471.589, 852 471.841, 852 471.561 C 852 471.281, 853.296 470.381, 854.880 469.562 C 857.786 468.059, 858.339 466.322, 860.462 452 C 860.863 449.298, 857.769 444.495, 852.545 439.711 C 849.978 437.360, 848.872 437, 845.500 437.424 C 842.313 437.824, 841.971 437.732, 843.814 436.971 C 846.886 435.704, 845.793 434.223, 841.215 433.451 C 839.172 433.107, 836.825 432.691, 836 432.526 C 835.175 432.361, 833.097 432.556, 831.383 432.960 M 834.469 441.739 C 829.305 444.974, 827.488 445.543, 821 445.957 C 813.714 446.423, 813.642 446.452, 818.500 446.983 C 824.601 447.651, 830.925 445.812, 836.750 441.677 C 840.540 438.987, 841.606 438, 840.719 438 C 840.564 438, 837.752 439.683, 834.469 441.739 M 946.500 442.633 C 943.200 443.409, 938.025 444.768, 935 445.653 C 925.491 448.438, 913.987 451, 910.996 451 C 906.281 451, 906.738 452.542, 912.282 455.343 C 918.383 458.426, 924.440 462.033, 932.255 467.239 C 935.343 469.295, 940.036 471.811, 942.684 472.831 C 945.333 473.850, 948.400 475.032, 949.500 475.457 C 952.519 476.625, 958.856 477.422, 965.004 477.407 C 969.148 477.396, 971.804 476.687, 975.754 474.538 C 978.639 472.967, 981 471.079, 981 470.341 C 981 469.603, 981.622 469, 982.381 469 C 983.141 469, 984.957 467.434, 986.417 465.520 C 988.960 462.186, 989.002 461.933, 987.421 459.520 C 986.513 458.134, 985.372 457, 984.885 457 C 984.398 457, 984 456.379, 984 455.620 C 984 453.873, 976.813 447.956, 971.253 445.125 C 968.917 443.936, 964.867 442.724, 962.253 442.432 C 959.639 442.141, 956.375 441.749, 955 441.563 C 953.625 441.376, 949.800 441.857, 946.500 442.633 M 694.730 453.233 C 690.056 462.352, 688.481 465.022, 683.349 472.528 C 678.871 479.077, 673.993 492.800, 674.011 498.802 C 674.017 500.836, 674.692 504.709, 675.511 507.409 C 677.306 513.326, 677.427 521.377, 675.811 527.417 C 674.670 531.684, 674.775 532.155, 678.450 539.181 C 682.679 547.266, 685.972 551.890, 687.500 551.888 C 688.903 551.887, 697.550 541.400, 701.048 535.457 C 702.653 532.731, 703.974 529.461, 703.983 528.191 C 703.992 526.921, 704.392 526.124, 704.872 526.421 C 705.947 527.085, 708.438 520.651, 710.455 512 C 712.933 501.372, 712.478 490.554, 709.122 480.296 C 705.745 469.975, 703.998 466, 702.839 466 C 702.378 466, 701.974 464.988, 701.943 463.750 C 701.911 462.512, 701.114 458.005, 700.170 453.733 L 698.455 445.966 694.730 453.233 M 929.500 459.164 C 931.293 459.836, 940.215 460.330, 951.681 460.394 C 962.646 460.454, 969.927 460.149, 968.681 459.679 C 967.481 459.228, 959.525 459.003, 951 459.179 C 942.475 459.356, 933.475 459.172, 931 458.771 C 926.983 458.120, 926.822 458.162, 929.500 459.164 M 788.944 502.310 C 788.342 534.031, 788.675 536.602, 794.979 548.960 C 798.686 556.226, 808.856 562.295, 818.840 563.198 C 822.100 563.493, 822.238 563.346, 824.669 557 C 826.473 552.288, 827.205 548.299, 827.329 542.500 C 827.480 535.428, 827.141 533.746, 824.408 528 C 821.562 522.018, 814.175 513.325, 805.684 505.968 L 802.868 503.528 803.392 509.014 L 803.916 514.500 802.708 508.415 C 801.770 503.687, 800.506 501.122, 797.046 496.915 C 788.612 486.662, 789.249 486.237, 788.944 502.310 M 672.012 493.750 C 669.951 500.892, 669.707 510.195, 671.353 518.888 C 672.227 523.501, 673.180 527.513, 673.471 527.804 C 675.973 530.307, 676.706 515.787, 674.490 507.601 C 673.237 502.973, 672.908 499.436, 673.368 495.528 C 674.121 489.121, 673.560 488.385, 672.012 493.750 M 827 511.798 C 827 512.311, 827.932 513.915, 829.071 515.363 C 830.210 516.811, 834.091 523.734, 837.695 530.748 C 850.075 554.839, 855.034 560.572, 869.528 567.545 C 879.741 572.458, 888.580 574.261, 900.235 573.809 C 910.896 573.395, 912.614 572.622, 911.152 568.902 C 910.633 567.581, 909.633 564.569, 908.930 562.209 C 908.228 559.848, 906.718 556.887, 905.576 555.628 C 904.434 554.369, 903.452 552.674, 903.393 551.862 C 903.161 548.658, 890.353 533.561, 883.475 528.383 C 872.663 520.246, 866.035 517.836, 849.500 516.027 C 843.567 515.378, 836.899 513.891, 828.750 511.400 C 827.788 511.106, 827 511.285, 827 511.798" stroke="none" fill="#605951" fill-rule="evenodd"/><path d="M -0 340.501 L -0 681.001 793.750 680.751 L 1587.500 680.500 1587.751 340.250 L 1588.003 -0 794.001 -0 L 0 0 -0 340.501 M 0.494 341 C 0.494 528.275, 0.609 604.887, 0.750 511.250 C 0.891 417.612, 0.891 264.387, 0.750 170.750 C 0.609 77.112, 0.494 153.725, 0.494 341 M 724.966 159.854 C 719.776 160.972, 718.915 161.765, 719.579 164.811 C 722.791 179.527, 732.453 195.740, 744.701 206.963 C 756.174 217.476, 765.105 221.275, 784.982 224.095 C 800.902 226.353, 811.599 230.964, 820.612 239.452 C 821.224 240.029, 826.036 244.100, 831.306 248.500 C 836.576 252.900, 840.913 256.900, 840.944 257.390 C 841.045 258.992, 830.433 257.233, 820.367 253.979 C 811.348 251.063, 809.707 250.834, 801.273 251.313 C 794.384 251.704, 790.857 252.428, 787.355 254.168 C 782.301 256.681, 776.136 263.630, 774.094 269.116 C 772.067 274.563, 771.490 275.342, 768.929 276.093 C 767.593 276.485, 760.879 278.455, 754.010 280.471 C 741.938 284.013, 741.302 284.095, 735.010 282.924 C 728.467 281.707, 717.451 276.255, 708 269.559 C 693.896 259.566, 682.332 255.520, 669.883 256.223 C 663.880 256.563, 661.232 257.247, 657.383 259.455 C 651.549 262.803, 645.390 268.443, 643.374 272.285 C 642.033 274.841, 642.093 275.332, 644.111 278.285 C 648.446 284.627, 655.601 291.219, 661.311 294.129 C 673.183 300.179, 683.221 300.025, 704.046 293.473 C 715.011 290.023, 726.298 287.859, 724.780 289.497 C 724.383 289.924, 716.058 293.002, 706.280 296.337 L 688.500 302.400 672.500 302 C 649.021 301.412, 641.760 301.618, 635.824 303.041 C 624.353 305.789, 608.936 316.316, 601.091 326.756 C 596.741 332.545, 591.293 343.194, 590.420 347.613 L 589.805 350.725 596.652 352.613 C 601.886 354.055, 606.681 354.483, 617 354.429 C 628.625 354.367, 631.702 353.990, 639.156 351.710 C 643.916 350.255, 650.425 347.826, 653.620 346.313 C 660.058 343.265, 669.256 334.752, 675.878 325.712 C 683.314 315.563, 690.649 309.032, 698.885 305.227 C 707.280 301.348, 734 291.729, 734 292.586 C 734 294.603, 730.414 298.880, 720.657 308.500 C 710.414 318.599, 709.266 320.115, 706.639 327 C 704.267 333.217, 703.864 335.526, 704.283 340.500 C 704.867 347.440, 707.648 354.275, 711.546 358.354 L 714.274 361.208 711.521 372.854 C 710.007 379.259, 708.381 386.085, 707.907 388.022 C 705.761 396.798, 697.780 403.573, 677.280 414.021 C 670.746 417.351, 662.616 422.355, 659.213 425.142 C 651.568 431.403, 645.359 440.421, 644.431 446.613 C 643.449 453.157, 644.518 464.802, 646.555 469.750 C 648.576 474.663, 650.191 474.987, 660.509 472.553 C 669.795 470.363, 675.557 467.495, 681.113 462.298 C 688.019 455.838, 691.358 448.709, 695.902 430.723 C 698.018 422.350, 700.268 414.200, 700.902 412.611 C 703.411 406.331, 702.978 411.623, 699.566 428.943 C 695.581 449.170, 694.567 451.671, 683.536 468.500 C 671.191 487.331, 668.622 494.310, 668.630 509 C 668.636 520.541, 670.194 527.820, 674.876 538.174 C 677.741 544.509, 686.304 557, 687.782 557 C 688.837 557, 698.005 547.377, 701.120 543 C 710.591 529.690, 716 513.171, 716 497.551 C 716 488.411, 714.018 480.657, 707.423 464 C 704.076 455.547, 703.657 453.508, 703.626 445.500 C 703.595 437.844, 708.325 405.822, 709.753 404.015 C 709.964 403.748, 710.978 404.645, 712.007 406.009 C 713.924 408.551, 714.270 409.698, 718.019 425.953 C 723.106 448.014, 737.922 459.609, 756.074 455.738 C 759.603 454.985, 759.800 455.124, 771.634 466.738 C 787.543 482.351, 787.520 482.285, 786.710 508.897 C 786.027 531.391, 787.035 539.165, 791.885 548.771 C 797.054 559.011, 807.826 566.245, 820.065 567.694 L 824.652 568.237 826.895 563.022 C 828.129 560.154, 829.868 554.444, 830.761 550.332 C 832.693 541.427, 831.804 535.452, 827.027 525.244 C 824.570 519.994, 821.556 516.386, 810.662 505.654 C 803.318 498.420, 796.773 491.488, 796.119 490.250 C 794.777 487.710, 795.207 487.350, 797.201 489.344 C 797.941 490.084, 801.910 493.506, 806.022 496.950 C 823.767 511.813, 827.616 516.208, 834.527 529.500 C 845.291 550.204, 847.458 553.608, 853.943 560 C 857.570 563.575, 862.779 567.704, 865.519 569.175 C 878.909 576.364, 896.333 579.484, 909.364 577.026 C 915.975 575.778, 916 575.761, 916 572.424 C 916 567.939, 912.798 559.642, 907.226 549.690 C 903.970 543.874, 899.985 538.857, 893.481 532.384 C 881.230 520.191, 874.421 516.769, 855.935 513.511 C 837.094 510.192, 833.491 509.288, 828.175 506.550 C 823.764 504.277, 808.943 492.348, 799 483.068 L 794.500 478.868 801 479.390 C 804.575 479.677, 810.875 481.072, 815 482.490 C 829.465 487.462, 843.684 486.759, 851.661 480.678 C 856.334 477.115, 861.097 470.386, 862.933 464.750 C 863.605 462.687, 864.762 461, 865.503 461 C 866.244 461, 872.823 459.166, 880.123 456.925 C 891.643 453.388, 894.151 452.937, 899.109 453.513 C 905.585 454.264, 913.406 457.923, 926 466.092 C 939.670 474.959, 941.094 475.714, 949.500 478.536 C 964.961 483.729, 977.706 480.691, 988.657 469.202 C 991.596 466.119, 994 463.206, 994 462.728 C 994 460.965, 988.092 453.357, 983.092 448.682 C 974.043 440.219, 962.412 436.803, 949.500 438.813 C 946.200 439.326, 938.100 441.335, 931.500 443.276 C 919.911 446.685, 908.878 448.926, 910.086 447.625 C 910.409 447.278, 918.458 444.314, 927.973 441.038 C 948.002 434.142, 954.102 433.327, 974.443 434.828 C 999.534 436.679, 1012.672 432.409, 1028.250 417.340 C 1035.520 410.308, 1039.479 404.655, 1043.138 396.080 C 1047.152 386.673, 1047.113 386.498, 1040.500 384.491 C 1030.224 381.371, 1013.112 381.137, 1001.500 383.957 C 990.073 386.731, 981.529 390.349, 975.602 394.921 C 970.024 399.225, 969.656 399.616, 960 411.500 C 951.748 421.656, 946.784 426.349, 940.500 429.933 C 935.323 432.886, 906.032 444, 903.425 444 C 900.516 444, 904.712 438.408, 914.044 429.850 C 924.524 420.239, 928.050 415.366, 931.054 406.337 C 932.659 401.516, 933.034 398.714, 932.528 395.341 C 931.596 389.120, 928.444 382.089, 924.975 378.491 L 922.074 375.481 925.540 360.991 C 929.558 344.193, 929.939 343.324, 935.914 337.349 C 940.779 332.484, 947.015 328.582, 959.500 322.591 C 974.518 315.383, 984.849 306.470, 990.103 296.188 C 993.380 289.774, 993.427 274.991, 990.193 267.750 C 988.197 263.281, 987.845 263, 984.246 263 C 974.324 263, 961.754 268.162, 954.828 275.082 C 948.563 281.340, 944.321 290.115, 941.478 302.697 C 940.183 308.430, 938.139 316.131, 936.938 319.810 C 934.456 327.407, 932.328 330.555, 933.429 325 C 933.811 323.075, 935.224 315.425, 936.569 308 C 940.205 287.926, 940.936 286.112, 952.486 268.500 C 964.053 250.863, 966.753 244.282, 967.684 231.462 C 968.823 215.769, 962.197 195.607, 952.085 184 L 948.165 179.500 943.513 184 C 937.808 189.518, 931.212 199.292, 927.217 208.148 C 922.360 218.914, 920.596 227.216, 920.556 239.500 C 920.519 250.500, 920.520 250.500, 926.337 266 C 933.236 284.379, 934.150 291.281, 931.572 305.500 C 930.674 310.450, 929.257 318.324, 928.422 322.998 C 927.586 327.673, 926.513 331.887, 926.037 332.363 C 924.539 333.861, 922.055 327.470, 919.144 314.627 C 916.210 301.683, 913.488 295.760, 907.355 288.972 C 901.140 282.092, 888.601 278.327, 880.648 280.951 L 877.027 282.146 868.263 273.656 C 863.443 268.986, 858.323 264.243, 856.884 263.116 C 855.410 261.960, 853.228 258.325, 851.884 254.783 C 849.603 248.772, 849.512 247.571, 849.766 227 C 850.063 203.088, 849.366 197.694, 844.762 188.236 C 839.660 177.758, 829.621 170.796, 817.574 169.380 L 812.171 168.745 810.177 172.652 C 806.462 179.935, 804.776 187.732, 805.149 195.906 C 805.443 202.354, 806.100 204.814, 809.192 211.052 C 812.261 217.244, 815.016 220.602, 825.526 230.964 C 843.007 248.198, 847.424 254.597, 833.394 242.360 C 830.152 239.533, 823.978 234.164, 819.673 230.428 C 810.541 222.503, 808.439 219.628, 799.994 203.500 C 787.735 180.089, 782.151 173.626, 768.045 166.523 C 764.443 164.709, 759.022 162.473, 755.998 161.554 C 749.913 159.704, 730.579 158.645, 724.966 159.854 M 728 163 C 728 163.550, 726.855 164, 725.455 164 C 723.059 164, 722.949 164.221, 723.590 167.750 C 724.264 171.463, 727.233 178.244, 729.327 180.851 C 729.924 181.594, 730.510 182.871, 730.630 183.688 C 731.058 186.598, 736.556 193.624, 744.966 202.005 C 755.955 212.957, 762.717 216.484, 777.581 219.014 C 783.542 220.029, 788.795 220.627, 789.254 220.343 C 789.712 220.060, 790.630 220.260, 791.294 220.788 C 791.957 221.317, 793.850 221.994, 795.500 222.293 C 801.684 223.414, 807.470 225.144, 808.911 226.302 C 809.730 226.961, 808.330 224.575, 805.799 221 C 801.422 214.818, 792 197.194, 792 195.188 C 792 194.669, 791.292 193.657, 790.427 192.939 C 789.562 192.221, 788 189.959, 786.956 187.913 C 779.623 173.540, 756.702 162, 735.486 162 C 731.162 162, 728 162.422, 728 163 M 728 164.879 C 728 166.060, 732.184 167.667, 739.768 169.399 C 747.433 171.150, 753.493 174.589, 758.313 179.924 C 762.620 184.692, 770.352 189.188, 778 191.372 C 781.828 192.465, 784.944 194.295, 788.250 197.393 C 790.862 199.840, 793 201.464, 793 200.999 C 793 198.771, 783.058 191.830, 777.283 190.027 C 768.308 187.224, 765.640 185.618, 758.830 178.912 C 751.634 171.826, 749.523 170.629, 740.576 168.554 C 736.860 167.692, 732.860 166.315, 731.687 165.493 C 729.273 163.802, 728 163.590, 728 164.879 M 811.876 174.728 C 811.270 176.253, 810.098 178.784, 809.270 180.352 C 807.178 184.320, 806.404 198.653, 808.016 203.588 C 810.551 211.352, 818.453 221.671, 827.702 229.297 C 830.013 231.203, 834.963 236.313, 838.702 240.653 L 845.500 248.543 845.441 225.021 L 845.382 201.500 842.181 193.500 C 840.420 189.100, 838.196 184.558, 837.240 183.406 C 833.085 178.404, 826.014 174.839, 815.739 172.567 C 813.388 172.047, 812.813 172.369, 811.876 174.728 M 941.967 189.115 C 939.510 191.928, 936.825 195.402, 936 196.835 C 935.175 198.267, 933.938 200.047, 933.252 200.789 C 932.565 201.532, 931.708 203.346, 931.348 204.820 C 930.987 206.294, 930.402 207.725, 930.049 208 C 928.578 209.142, 924.902 219.784, 923.376 227.313 C 922.272 232.763, 921.934 237.688, 922.336 242.449 C 922.881 248.896, 926.829 261.942, 930.404 269.107 C 931.186 270.675, 932.639 275.117, 933.634 278.979 C 934.629 282.840, 935.779 286, 936.190 286 C 936.601 286, 936.688 286.788, 936.382 287.750 C 936.077 288.712, 938.138 285.225, 940.963 280 C 943.788 274.775, 947.327 268.925, 948.829 267 C 953.405 261.133, 954.722 258.641, 957.497 250.601 C 960.424 242.120, 960.542 235.667, 957.966 224.821 C 956.850 220.124, 956.839 217.771, 957.903 211.223 C 959.172 203.408, 959.153 203.236, 956.481 197.903 C 953.801 192.556, 947.996 184.091, 946.967 184.031 C 946.675 184.014, 944.425 186.302, 941.967 189.115 M 959.683 211 C 958.298 219.349, 958.292 223.169, 959.658 227.132 C 960.458 229.455, 961.142 234.497, 961.179 238.336 C 961.232 243.996, 961.457 244.955, 962.372 243.408 C 964.227 240.271, 963.849 215.254, 961.882 211 L 960.264 207.500 959.683 211 M 797.500 253.497 C 796.950 253.684, 794.860 254.110, 792.855 254.444 C 789.178 255.057, 782.807 259.403, 780.264 263.033 C 777.805 266.544, 781.169 265.374, 787.364 260.563 C 792.850 256.303, 797.255 254.711, 806.500 253.645 C 808.150 253.455, 807.025 253.268, 804 253.229 C 800.975 253.190, 798.050 253.311, 797.500 253.497 M 796.253 256.460 C 793.918 257.190, 790.350 259.241, 788.326 261.019 C 786.302 262.796, 783.227 264.843, 781.493 265.567 C 779.759 266.292, 777.879 267.473, 777.315 268.192 C 775.778 270.150, 774 278.289, 774 283.362 C 774 287.350, 774.557 288.448, 779.100 293.419 C 783.210 297.916, 784.812 299.003, 787.350 299.015 C 789.676 299.027, 790.117 299.273, 789.034 299.958 C 787.860 300.700, 788.122 301.096, 790.349 301.943 C 794.732 303.609, 804.022 303.178, 808.500 301.100 C 813.704 298.685, 820.930 293.347, 821.696 291.351 C 822.027 290.488, 823.243 288.752, 824.399 287.493 C 825.554 286.234, 828.075 282.580, 830 279.373 C 831.925 276.166, 835.395 271.508, 837.711 269.021 C 841.745 264.690, 841.829 264.473, 839.711 263.850 C 837.866 263.307, 838.025 263.183, 840.668 263.100 C 844.646 262.975, 847.146 262.046, 846.466 260.946 C 846.179 260.481, 843.819 260.336, 841.222 260.624 C 836.389 261.160, 826.694 259.372, 819.500 256.619 C 814.565 254.730, 802.065 254.645, 796.253 256.460 M 662.665 259.800 C 657.596 261.600, 651.221 266.539, 647.781 271.331 C 646.017 273.789, 645.919 274.481, 647.043 276.581 C 647.755 277.911, 648.963 279, 649.728 279 C 650.493 279, 650.872 279.398, 650.572 279.884 C 649.664 281.353, 658.202 288.477, 664.364 291.392 C 669.200 293.680, 671.504 294.130, 678.476 294.150 C 683.059 294.163, 687.761 293.663, 688.925 293.040 C 690.089 292.417, 691.424 292.144, 691.893 292.434 C 692.361 292.723, 696.519 291.684, 701.132 290.124 C 705.746 288.565, 712.666 286.754, 716.511 286.101 C 727.447 284.243, 727.708 284.108, 724.351 282.070 C 722.783 281.117, 717.937 278.462, 713.583 276.169 C 709.229 273.876, 706.079 271.996, 706.583 271.990 C 708.699 271.969, 694.342 263.767, 691.332 263.279 C 689.432 262.971, 688.308 262.311, 688.674 261.718 C 689.048 261.114, 688.816 260.996, 688.111 261.432 C 687.452 261.839, 686.370 261.723, 685.706 261.173 C 684.734 260.368, 670.809 257.880, 668.178 258.042 C 667.805 258.064, 665.324 258.856, 662.665 259.800 M 844.500 267.646 C 840.988 269.941, 832 279.753, 832 281.292 C 832 282.950, 823.536 294.242, 820.068 297.210 C 803.728 311.196, 786.742 309.252, 773.702 291.906 C 771.749 289.307, 771 287.128, 771 284.039 C 771 280.444, 770.723 279.847, 769.250 280.273 C 768.288 280.551, 762.167 282.265, 755.648 284.080 L 743.796 287.382 744.170 293.941 C 744.487 299.483, 745.425 302.283, 750.218 312 C 756.631 324.999, 757.941 329.603, 757.976 339.282 C 758.030 354.469, 749.071 364.018, 731.867 367.110 C 725.576 368.241, 725.069 368.185, 722.040 366.028 C 720.283 364.778, 718.496 364.147, 718.068 364.627 C 717.097 365.717, 711.969 386.754, 711.987 389.573 C 712.010 393.273, 719.564 396.080, 732.319 397.128 C 748.098 398.425, 754.540 399.739, 760.933 402.966 C 768.087 406.577, 771.694 410.195, 774.757 416.827 C 776.802 421.254, 777.146 423.281, 776.799 428.827 C 776.570 432.497, 775.320 438.356, 774.021 441.847 C 772.107 446.994, 771.032 448.494, 768.331 449.782 C 766.499 450.656, 765 451.639, 765 451.967 C 765 452.524, 771.004 458.432, 780.627 467.344 L 784.754 471.166 788.722 469.142 C 793.562 466.673, 797.433 462.361, 804.653 451.398 C 810.775 442.102, 816.122 436.910, 824.146 432.467 C 828.702 429.944, 830.543 429.512, 836.500 429.564 C 846.217 429.651, 851.491 432.509, 859.719 442.148 C 863.391 446.450, 864 447.807, 864 451.689 C 864 455.349, 864.294 456.101, 865.537 455.624 C 866.382 455.300, 869.645 454.319, 872.787 453.444 C 875.929 452.569, 881.362 450.933, 884.859 449.809 L 891.218 447.764 890.827 441.632 C 890.507 436.627, 889.255 433.019, 884.014 422 C 877.737 408.804, 877.583 408.284, 877.187 398.924 C 876.836 390.648, 877.068 388.786, 878.897 385.202 C 883.496 376.188, 888.314 372.494, 899.500 369.405 C 906.377 367.505, 909.704 367.654, 913.553 370.033 C 915.362 371.151, 917.053 371.713, 917.310 371.283 C 918.292 369.643, 923 349.580, 923 347.036 C 923 341.918, 911.592 338.013, 896.566 337.988 C 887.851 337.973, 881.106 336.240, 873.043 331.942 C 865.593 327.971, 861.925 323.774, 859.679 316.652 C 857.394 309.403, 857.561 305.494, 860.557 296.008 C 862.834 288.802, 863.493 287.733, 866.557 286.271 C 868.451 285.368, 870 284.316, 870 283.933 C 870 282.729, 850.986 264.999, 849.712 265.016 C 849.045 265.025, 846.700 266.208, 844.500 267.646 M 977 267.127 C 971.005 268.226, 964 270.928, 964 272.142 C 964 272.679, 963.634 272.892, 963.188 272.616 C 962.028 271.899, 957.827 274.915, 954.292 279 C 950.843 282.987, 945.807 292.470, 946.174 294.287 C 946.309 294.954, 945.942 296.400, 945.359 297.500 C 944.775 298.600, 943.724 302.425, 943.023 306 C 941.637 313.069, 939.141 321.287, 936.537 327.358 C 935.627 329.480, 935.045 331.378, 935.243 331.576 C 935.730 332.064, 953.412 321.816, 953.833 320.802 C 954.017 320.361, 954.819 320, 955.617 320 C 958.263 320, 967.438 314.802, 971.728 310.873 C 974.053 308.743, 976.329 307, 976.785 307 C 977.241 307, 979.676 304.188, 982.196 300.750 C 989.382 290.948, 990.580 283.854, 986.927 272.728 C 984.671 265.856, 984.490 265.753, 977 267.127 M 871.250 287.179 C 867.813 288.772, 865 290.695, 865 291.454 C 865 292.213, 866.237 293.818, 867.750 295.022 L 870.500 297.211 867.722 295.564 C 864.195 293.473, 863.502 293.951, 862.123 299.426 C 859.718 308.975, 861.769 317.960, 867.809 324.344 C 873.867 330.748, 886.341 335, 899.070 335 L 906.041 335 904.127 331.250 C 903.074 329.188, 901.265 326.643, 900.106 325.595 C 898.948 324.547, 898.016 323.197, 898.036 322.595 C 898.085 321.100, 902.689 326.699, 904.948 331.001 C 906.599 334.145, 907.536 334.693, 914.143 336.374 C 918.189 337.403, 922.073 338.704, 922.774 339.265 C 925.401 341.368, 925.041 339.039, 922.114 334.998 C 918.912 330.578, 915.502 320.648, 914.498 312.820 C 914.169 310.247, 912.917 306.893, 911.718 305.368 C 910.518 303.843, 910.086 302.935, 910.757 303.350 C 914.037 305.377, 907.707 294.918, 902.859 290.301 C 897.863 285.542, 893.044 283.898, 884.695 284.105 C 879.119 284.243, 876.094 284.934, 871.250 287.179 M 371.196 289.832 C 365.406 292.283, 364.943 292.704, 365.517 295 C 367.495 302.906, 367.376 303.409, 358.002 326.672 C 325.095 408.336, 325.156 408.205, 318.380 412.203 C 316.521 413.300, 315 414.603, 315 415.099 C 315 415.594, 319.725 416, 325.500 416 C 331.275 416, 336 415.602, 336 415.115 C 336 414.628, 334.875 413.493, 333.500 412.592 C 329.334 409.862, 330.019 403.564, 336.083 388.841 C 338.879 382.054, 341.901 374.587, 342.799 372.250 L 344.431 368 370.055 368 L 395.679 368 396.953 370.750 C 402.195 382.061, 411.315 405.179, 411.740 408.232 C 412.136 411.084, 411.874 412.111, 410.629 412.589 C 409.733 412.933, 409 413.841, 409 414.607 C 409 415.731, 411.700 416, 423 416 C 436.974 416, 439.225 415.390, 434.960 412.758 C 431.360 410.538, 426.230 401.842, 420.650 388.500 C 407.739 357.635, 403.651 347.810, 391.425 318.266 C 384.316 301.087, 378.275 287.062, 378 287.098 C 377.725 287.135, 374.663 288.365, 371.196 289.832 M 454 288.923 C 454 289.431, 455.311 291.158, 456.914 292.761 C 458.874 294.720, 460.040 297.121, 460.474 300.087 C 460.829 302.514, 460.980 327.695, 460.809 356.045 C 460.525 403.396, 460.356 407.811, 458.727 410.295 C 457.752 411.783, 456.289 413, 455.477 413 C 454.665 413, 454 413.675, 454 414.500 C 454 415.811, 459.658 416, 498.920 416 L 543.841 416 544.393 409.750 C 545.658 395.424, 545.675 392, 544.484 392 C 543.835 392, 542.508 393.764, 541.536 395.919 C 539.212 401.073, 532.840 407.415, 527.282 410.106 C 522.142 412.594, 506.974 413.962, 490.500 413.423 C 481.167 413.118, 480.350 412.922, 478.250 410.492 C 476.027 407.919, 476 407.541, 476 378.444 L 476 349 490.250 349.020 C 514.221 349.054, 522.623 351.211, 526.500 358.324 C 527.600 360.343, 528.837 361.996, 529.250 361.997 C 529.663 361.999, 530 355.700, 530 348 C 530 340.300, 529.663 334.003, 529.250 334.008 C 528.837 334.012, 527.510 335.750, 526.299 337.870 C 522.435 344.639, 519.439 345.433, 496.250 345.831 L 476 346.178 476 318.498 L 476 290.819 495.750 291.213 C 513.258 291.562, 516.141 291.859, 521.143 293.835 C 527.334 296.280, 534.618 303.171, 536.908 308.750 C 537.642 310.538, 538.905 312, 539.715 312 C 540.884 312, 541.072 311.020, 540.628 307.250 C 540.320 304.637, 539.782 299.238, 539.432 295.250 L 538.797 288 496.399 288 C 471.155 288, 454 288.373, 454 288.923 M 1081.686 288.647 C 1081.330 289.003, 1083.012 291.141, 1085.424 293.397 C 1088.351 296.136, 1090.182 298.897, 1090.931 301.705 C 1091.709 304.622, 1091.968 321.723, 1091.776 357.565 L 1091.500 409.220 1088.250 411.933 C 1086.463 413.425, 1085 414.950, 1085 415.323 C 1085 415.695, 1090.213 416, 1096.583 416 C 1103.382 416, 1108.029 415.612, 1107.833 415.060 C 1107.650 414.543, 1105.925 413.065, 1104 411.775 C 1102.075 410.485, 1099.600 407.646, 1098.500 405.465 C 1096.597 401.692, 1096.485 399.182, 1096.197 353.500 C 1096.021 325.651, 1096.265 305.920, 1096.778 306.500 C 1097.264 307.050, 1103.640 317.400, 1110.946 329.500 C 1118.252 341.600, 1125.910 354.200, 1127.963 357.500 C 1130.016 360.800, 1134.165 367.550, 1137.184 372.500 C 1140.202 377.450, 1143.357 381.633, 1144.196 381.796 C 1145.248 382.001, 1150.454 374.102, 1161 356.296 C 1169.404 342.108, 1178.307 327.125, 1180.784 323 C 1183.261 318.875, 1186.178 313.925, 1187.265 312 C 1192.264 303.150, 1192 300.762, 1192 354.810 C 1192 408.461, 1191.835 410.412, 1187.085 412.955 C 1182.577 415.367, 1185.261 416, 1200 416 C 1208.250 416, 1215 415.635, 1215 415.188 C 1215 414.741, 1213.713 413.424, 1212.140 412.261 C 1210.481 411.035, 1208.976 408.750, 1208.558 406.823 C 1207.441 401.679, 1206.895 327.718, 1207.871 313.711 C 1208.843 299.742, 1210.997 294.054, 1216.184 291.758 C 1221.092 289.586, 1218.678 288.510, 1208.236 288.216 L 1198.135 287.932 1189.378 302.716 C 1184.562 310.847, 1176.057 325.150, 1170.479 334.500 C 1164.900 343.850, 1158.440 354.762, 1156.124 358.750 C 1153.807 362.738, 1151.594 365.998, 1151.206 365.995 C 1150.818 365.992, 1148.560 362.730, 1146.189 358.745 C 1143.818 354.760, 1135.824 341.600, 1128.425 329.500 C 1121.027 317.400, 1112.392 303.118, 1109.237 297.763 L 1103.500 288.025 1092.917 288.013 C 1087.096 288.006, 1082.042 288.291, 1081.686 288.647 M 738.418 290.094 C 737.822 290.867, 736.777 292.909, 736.095 294.631 C 735.414 296.354, 732.645 300.179, 729.943 303.131 C 727.241 306.084, 725.024 308.864, 725.015 309.309 C 725.007 309.754, 724.588 309.864, 724.085 309.553 C 722.875 308.805, 713.819 317.899, 714.568 319.110 C 714.887 319.627, 714.620 319.926, 713.973 319.775 C 713.326 319.624, 711.380 322.200, 709.648 325.500 C 702.598 338.936, 706.942 352.892, 721.005 361.982 C 725.160 364.668, 725.936 364.831, 731.005 364.087 C 737.908 363.072, 741.875 361.488, 742.665 359.431 C 743.132 358.214, 743.464 358.133, 744.057 359.092 C 745.263 361.044, 752.647 352.288, 754.075 347.213 C 755.487 342.193, 754.783 329.243, 752.813 324.016 C 752.091 322.099, 749.813 317.425, 747.750 313.627 C 745.688 309.830, 744 306.200, 744 305.562 C 744 304.923, 743.548 303.948, 742.996 303.396 C 742.444 302.844, 741.432 299.309, 740.746 295.541 C 739.789 290.279, 739.249 289.015, 738.418 290.094 M 633.488 305.998 C 630.732 306.943, 626.586 308.681, 624.276 309.859 C 619.807 312.139, 609.033 320.465, 607.706 322.665 C 607.269 323.388, 605.222 325.933, 603.157 328.318 C 599.071 333.039, 594.208 342.194, 593.773 345.985 C 593.526 348.141, 594.065 348.485, 599.500 349.639 C 606.008 351.021, 623.996 351.469, 624.006 350.250 C 624.009 349.837, 626.372 349.448, 629.256 349.385 C 635.330 349.252, 645.182 346.062, 652.860 341.743 C 658.884 338.354, 664.255 333.249, 671.261 324.254 C 675.801 318.425, 675.917 318.122, 673.761 317.707 C 671.625 317.296, 671.638 317.265, 674.003 317.136 C 675.519 317.054, 678.645 314.981, 681.928 311.883 L 687.350 306.765 682.925 307.379 L 678.500 307.992 683.250 306.466 C 685.862 305.626, 687.999 304.841, 687.999 304.720 C 687.998 304.599, 676.861 304.450, 663.249 304.390 C 642.265 304.297, 637.738 304.541, 633.488 305.998 M 362.564 323.265 C 358.787 332.744, 353.515 345.780, 350.848 352.234 C 348.182 358.687, 346 364.200, 346 364.484 C 346 364.768, 356.800 365, 370 365 C 384.350 365, 394 364.621, 394 364.058 C 394 362.827, 371.042 307.725, 370.129 306.765 C 369.745 306.361, 366.340 313.786, 362.564 323.265 M 662 311.672 C 660.075 312.501, 656.025 315.319, 653 317.933 C 649.975 320.547, 646.150 323.414, 644.500 324.303 C 642.850 325.192, 642 325.938, 642.610 325.960 C 644.021 326.011, 650.225 321.813, 655.457 317.266 C 657.681 315.335, 661.525 312.934, 664 311.933 C 666.475 310.931, 667.825 310.123, 667 310.137 C 666.175 310.152, 663.925 310.842, 662 311.672 M 902.500 372.018 C 896.285 372.973, 892 374.612, 892 376.034 C 892 376.630, 891.517 376.819, 890.926 376.454 C 888.281 374.819, 880.532 385.693, 879.492 392.500 C 878.450 399.321, 880.513 409.110, 885.053 418.880 C 887.383 423.896, 889.567 428, 889.904 428 C 890.595 428, 892.654 424.914, 894.805 420.655 C 895.595 419.090, 896.581 415.490, 896.996 412.655 C 897.643 408.233, 897.768 408.016, 897.875 411.124 C 898.023 415.428, 895.862 421.981, 892.942 426.082 C 890.906 428.941, 890.890 429.226, 892.421 435.330 C 893.289 438.794, 894 442.837, 894 444.314 C 894 448.283, 895.649 447.581, 897.812 442.693 C 898.860 440.324, 901.806 436.034, 904.359 433.159 C 906.911 430.285, 909 427.512, 909 426.998 C 909 426.484, 909.563 426.262, 910.250 426.506 C 911.584 426.979, 918 421.665, 918 420.087 C 918 419.569, 919.176 418.220, 920.613 417.089 C 922.258 415.796, 923.004 414.452, 922.625 413.465 C 922.294 412.602, 922.442 412.155, 922.954 412.472 C 924.431 413.384, 928.156 403.952, 928.275 399 C 928.404 393.620, 926.294 385.700, 924.953 386.529 C 924.429 386.853, 924 386.257, 924 385.205 C 924 384.153, 922.987 382.213, 921.750 380.894 C 918.835 377.787, 909.487 370.963, 908.366 371.125 C 907.890 371.193, 905.250 371.595, 902.500 372.018 M 1011 385.651 C 1000.459 386.649, 987.428 390.550, 980.725 394.712 C 974.827 398.375, 972.401 400.750, 963.060 412.008 C 958.264 417.788, 952.689 424.074, 950.670 425.978 C 948.652 427.882, 947 429.904, 947 430.470 C 947 431.143, 955.349 431.570, 971.056 431.700 C 992.545 431.879, 995.794 431.690, 1001.512 429.924 C 1015.280 425.671, 1029.873 412.699, 1037.719 397.738 C 1041.404 390.711, 1041.829 388.007, 1039.250 387.985 C 1038.287 387.977, 1035.700 387.321, 1033.500 386.529 C 1029.807 385.198, 1019.876 384.811, 1011 385.651 M 890.160 391.091 C 890.072 393.616, 889.369 397.778, 888.598 400.339 C 887.828 402.901, 887.572 404.765, 888.031 404.481 C 889.373 403.651, 891.223 393.810, 890.752 390 C 890.367 386.877, 890.303 386.994, 890.160 391.091 M 709 396.559 C 709 396.866, 710.311 398.778, 711.913 400.809 C 714.922 404.621, 719.997 419.044, 720.004 423.802 C 720.006 425.286, 720.921 427.999, 722.038 429.830 C 723.154 431.662, 723.569 432.852, 722.960 432.475 C 722.351 432.099, 722.827 433.700, 724.017 436.034 C 727.453 442.769, 734.946 449.609, 740.787 451.344 C 746.936 453.170, 756.412 452.599, 761.568 450.091 L 765.234 448.308 761.535 446.021 C 756.837 443.118, 753.367 439.465, 751.007 434.937 C 748.201 429.554, 742.624 424.675, 736.760 422.474 C 731.033 420.325, 723.469 413.448, 717.853 405.287 C 713.750 399.322, 710.876 396, 709.820 396 C 709.369 396, 709 396.251, 709 396.559 M 715 398.468 C 715 399.791, 726.160 413.957, 729.252 416.559 C 730.976 418.009, 734.887 420.300, 737.943 421.648 C 744.252 424.432, 750.301 429.819, 753.012 435.068 C 756.213 441.266, 766.407 448.926, 768.573 446.760 C 770.312 445.021, 773.255 433.700, 773.164 429.100 C 772.914 416.570, 767.476 409.259, 755 404.681 C 749.140 402.531, 746.538 402.126, 734.344 401.465 C 724.939 400.955, 721.279 400.337, 716.750 398.497 C 715.788 398.106, 715 398.093, 715 398.468 M 690 409.524 C 685.325 412.473, 679.948 415.426, 678.051 416.086 C 671.244 418.455, 664.366 423.329, 656.434 431.404 C 646.993 441.015, 645.362 444.936, 646.291 455.791 C 647.032 464.445, 649.310 470, 652.119 470 C 655.628 470, 666.347 466.954, 669 465.202 C 670.375 464.295, 671.791 463.540, 672.147 463.526 C 674.133 463.446, 681.443 456.161, 684.020 451.693 C 687.554 445.567, 691.313 433.401, 692.576 424 C 692.687 423.175, 693.988 419.198, 695.467 415.162 C 696.947 411.126, 697.900 407.567, 697.587 407.254 C 697.274 406.940, 697.519 406.080, 698.131 405.342 C 699.721 403.426, 699.420 403.581, 690 409.524 M 831.383 432.960 C 823.808 434.742, 811.003 443.578, 812.496 445.993 C 812.767 446.432, 812.349 447.036, 811.568 447.336 C 810.787 447.635, 808.031 451.170, 805.445 455.190 C 802.858 459.211, 798.679 464.637, 796.159 467.250 L 791.575 472 794.538 472.116 C 797.634 472.237, 797.028 472.453, 790.648 473.498 C 785.065 474.412, 787.128 475.476, 794.834 475.656 C 803.238 475.852, 820.673 477.655, 816.083 477.853 C 812.014 478.028, 812.708 479.045, 817.955 480.595 C 821.837 481.741, 835.438 481.033, 839.500 479.474 C 841.041 478.882, 841.243 478.985, 840.380 479.923 C 839.764 480.592, 836.164 481.537, 832.380 482.022 L 825.500 482.904 833.737 482.484 C 842.963 482.014, 846.634 480.567, 852.250 475.187 C 856.340 471.268, 857.159 469.310, 854 471 C 852.900 471.589, 852 471.841, 852 471.561 C 852 471.281, 853.296 470.381, 854.880 469.562 C 857.786 468.059, 858.339 466.322, 860.462 452 C 860.863 449.298, 857.769 444.495, 852.545 439.711 C 849.978 437.360, 848.872 437, 845.500 437.424 C 842.313 437.824, 841.971 437.732, 843.814 436.971 C 846.886 435.704, 845.793 434.223, 841.215 433.451 C 839.172 433.107, 836.825 432.691, 836 432.526 C 835.175 432.361, 833.097 432.556, 831.383 432.960 M 834.469 441.739 C 829.305 444.974, 827.488 445.543, 821 445.957 C 813.714 446.423, 813.642 446.452, 818.500 446.983 C 824.601 447.651, 830.925 445.812, 836.750 441.677 C 840.540 438.987, 841.606 438, 840.719 438 C 840.564 438, 837.752 439.683, 834.469 441.739 M 946.500 442.633 C 943.200 443.409, 938.025 444.768, 935 445.653 C 925.491 448.438, 913.987 451, 910.996 451 C 906.281 451, 906.738 452.542, 912.282 455.343 C 918.383 458.426, 924.440 462.033, 932.255 467.239 C 935.343 469.295, 940.036 471.811, 942.684 472.831 C 945.333 473.850, 948.400 475.032, 949.500 475.457 C 952.519 476.625, 958.856 477.422, 965.004 477.407 C 969.148 477.396, 971.804 476.687, 975.754 474.538 C 978.639 472.967, 981 471.079, 981 470.341 C 981 469.603, 981.622 469, 982.381 469 C 983.141 469, 984.957 467.434, 986.417 465.520 C 988.960 462.186, 989.002 461.933, 987.421 459.520 C 986.513 458.134, 985.372 457, 984.885 457 C 984.398 457, 984 456.379, 984 455.620 C 984 453.873, 976.813 447.956, 971.253 445.125 C 968.917 443.936, 964.867 442.724, 962.253 442.432 C 959.639 442.141, 956.375 441.749, 955 441.563 C 953.625 441.376, 949.800 441.857, 946.500 442.633 M 694.730 453.233 C 690.056 462.352, 688.481 465.022, 683.349 472.528 C 678.871 479.077, 673.993 492.800, 674.011 498.802 C 674.017 500.836, 674.692 504.709, 675.511 507.409 C 677.306 513.326, 677.427 521.377, 675.811 527.417 C 674.670 531.684, 674.775 532.155, 678.450 539.181 C 682.679 547.266, 685.972 551.890, 687.500 551.888 C 688.903 551.887, 697.550 541.400, 701.048 535.457 C 702.653 532.731, 703.974 529.461, 703.983 528.191 C 703.992 526.921, 704.392 526.124, 704.872 526.421 C 705.947 527.085, 708.438 520.651, 710.455 512 C 712.933 501.372, 712.478 490.554, 709.122 480.296 C 705.745 469.975, 703.998 466, 702.839 466 C 702.378 466, 701.974 464.988, 701.943 463.750 C 701.911 462.512, 701.114 458.005, 700.170 453.733 L 698.455 445.966 694.730 453.233 M 929.500 459.164 C 931.293 459.836, 940.215 460.330, 951.681 460.394 C 962.646 460.454, 969.927 460.149, 968.681 459.679 C 967.481 459.228, 959.525 459.003, 951 459.179 C 942.475 459.356, 933.475 459.172, 931 458.771 C 926.983 458.120, 926.822 458.162, 929.500 459.164 M 788.944 502.310 C 788.342 534.031, 788.675 536.602, 794.979 548.960 C 798.686 556.226, 808.856 562.295, 818.840 563.198 C 822.100 563.493, 822.238 563.346, 824.669 557 C 826.473 552.288, 827.205 548.299, 827.329 542.500 C 827.480 535.428, 827.141 533.746, 824.408 528 C 821.562 522.018, 814.175 513.325, 805.684 505.968 L 802.868 503.528 803.392 509.014 L 803.916 514.500 802.708 508.415 C 801.770 503.687, 800.506 501.122, 797.046 496.915 C 788.612 486.662, 789.249 486.237, 788.944 502.310 M 672.012 493.750 C 669.951 500.892, 669.707 510.195, 671.353 518.888 C 672.227 523.501, 673.180 527.513, 673.471 527.804 C 675.973 530.307, 676.706 515.787, 674.490 507.601 C 673.237 502.973, 672.908 499.436, 673.368 495.528 C 674.121 489.121, 673.560 488.385, 672.012 493.750 M 827 511.798 C 827 512.311, 827.932 513.915, 829.071 515.363 C 830.210 516.811, 834.091 523.734, 837.695 530.748 C 850.075 554.839, 855.034 560.572, 869.528 567.545 C 879.741 572.458, 888.580 574.261, 900.235 573.809 C 910.896 573.395, 912.614 572.622, 911.152 568.902 C 910.633 567.581, 909.633 564.569, 908.930 562.209 C 908.228 559.848, 906.718 556.887, 905.576 555.628 C 904.434 554.369, 903.452 552.674, 903.393 551.862 C 903.161 548.658, 890.353 533.561, 883.475 528.383 C 872.663 520.246, 866.035 517.836, 849.500 516.027 C 843.567 515.378, 836.899 513.891, 828.750 511.400 C 827.788 511.106, 827 511.285, 827 511.798" stroke="none" fill="#e8e3db" fill-rule="evenodd"/></svg>